<svg width="25" height="24" viewBox="0 0 25 24" fill="none" xmlns="http://www.w3.org/2000/svg">
<path fill-rule="evenodd" clip-rule="evenodd" d="M9 19C9.82843 19 10.5 19.6716 10.5 20.5C10.5 21.3284 9.82843 22 9 22C8.17157 22 7.5 21.3284 7.5 20.5C7.5 19.6716 8.17157 19 9 19ZM18 19C18.8284 19 19.5 19.6716 19.5 20.5C19.5 21.3284 18.8284 22 18 22C17.1716 22 16.5 21.3284 16.5 20.5C16.5 19.6716 17.1716 19 18 19ZM3.5 2H5.5C5.9556 2 6.34831 2.30684 6.46506 2.73774L6.48837 2.84794L6.9733 6H21.5C22.0998 6 22.5549 6.52068 22.4951 7.10035L22.4762 7.21693L20.8242 14.6508C20.5325 15.9637 19.4059 16.9143 18.0779 16.9945L17.8957 17H9.21584C7.79435 17 6.57697 16.0044 6.28265 14.6299L6.25072 14.4562L4.64208 4H3.5C2.94772 4 2.5 3.55228 2.5 3C2.5 2.48716 2.88604 2.06449 3.38338 2.00673L3.5 2H5.5H3.5ZM20.2534 8H7.281L8.22747 14.1521C8.29674 14.6024 8.65973 14.9438 9.10337 14.9937L9.21584 15H17.8957C18.3253 15 18.7021 14.7265 18.8402 14.3285L18.8718 14.2169L20.2534 8Z" fill="black"/>
</svg>
