<svg width="40" height="25" viewBox="0 0 40 25" fill="none" xmlns="http://www.w3.org/2000/svg">

<path d="M36.0457 3.7282L24.8031 0.0579513C24.61 -0.0193171 24.4168 -0.0193171 24.185 0.0579513L12.9424 3.7282C12.5561 3.84411 12.2856 4.23045 12.2856 4.65542V19.4137C12.2856 19.8387 12.5561 20.1864 12.9424 20.3409L24.185 24.0112C24.3009 24.0498 24.3782 24.0498 24.4941 24.0498C24.61 24.0498 24.6872 24.0498 24.8031 24.0112L36.0457 20.3023C36.432 20.1864 36.7025 19.8 36.7025 19.3751V4.65542C36.7025 4.23045 36.432 3.88274 36.0457 3.7282ZM23.5282 21.7704L14.2174 18.7183V5.96899L17.9262 7.16665V14.3912C17.9262 14.9321 18.3512 15.3571 18.8921 15.3571C19.433 15.3571 19.858 14.9321 19.858 14.3912V7.82343L23.5668 9.02109V21.7704H23.5282ZM24.4941 7.32119L21.8669 6.47123L23.7214 5.81445C24.2236 5.62128 24.4941 5.0804 24.3009 4.57816C24.1077 4.07591 23.5668 3.84411 23.0646 3.99864L18.9307 5.50538L16.3422 4.65542L24.4941 1.98966L32.6459 4.65542L24.4941 7.32119ZM34.7708 18.7183L31.0619 19.9159V15.7434C31.0619 15.2026 30.6369 14.7776 30.096 14.7776C29.5551 14.7776 29.1688 15.2026 29.1688 15.7434V20.5727L25.4599 21.7704V9.02109L34.7708 5.96899V18.7183Z" fill="#131313"/>
<path d="M7.80411 5.69873H0.965856C0.424976 5.69873 0 6.12371 0 6.66459C0 7.20547 0.424976 7.63044 0.965856 7.63044H7.80411C8.34499 7.63044 8.76997 7.20547 8.76997 6.66459C8.73133 6.12371 8.30636 5.69873 7.80411 5.69873Z" fill="#131313"/>
<path d="M7.80411 11.0688H0.965856C0.424976 11.0688 0 11.4938 0 12.0347C0 12.5756 0.424976 13.0006 0.965856 13.0006H7.80411C8.34499 13.0006 8.76997 12.5756 8.76997 12.0347C8.76997 11.4938 8.30636 11.0688 7.80411 11.0688Z" fill="#131313"/>
<path d="M7.80411 16.439H0.965856C0.424976 16.439 0 16.8639 0 17.4048C0 17.9457 0.424976 18.3707 0.965856 18.3707H7.80411C8.34499 18.3707 8.76997 17.9457 8.76997 17.4048C8.76997 16.8639 8.30636 16.439 7.80411 16.439Z" fill="#131313"/>
</svg>
