<svg width="88" height="35" viewBox="0 0 88 35" fill="none" xmlns="http://www.w3.org/2000/svg">
<path d="M20.31 31.7701C19.93 31.8801 19.5 31.9501 19.04 31.9501C17.73 31.9501 16.71 31.3201 16.71 29.7401C16.71 28.7201 17.29 27.8701 18.71 27.8701C20.02 27.8701 20.37 28.5701 20.37 29.2901H19.29C19.29 28.9101 19.18 28.5001 18.63 28.5001C18.07 28.5001 17.8 28.9701 17.8 29.5601C17.8 30.3501 18.28 31.2901 19.59 31.2901C19.88 31.2901 20.11 31.2601 20.32 31.1901V31.7701H20.31Z" fill="#5F5E5E"/>
<path d="M27.07 29.9101C27.07 28.6301 27.74 27.8701 28.99 27.8701C30.24 27.8701 30.91 28.6301 30.91 29.9101C30.91 31.1901 30.24 31.9501 28.99 31.9501C27.74 31.9501 27.07 31.1901 27.07 29.9101ZM28.99 31.3101C29.72 31.3101 29.83 30.6401 29.83 29.9101C29.83 29.1801 29.72 28.5101 28.99 28.5101C28.26 28.5101 28.15 29.1801 28.15 29.9101C28.15 30.6401 28.26 31.3101 28.99 31.3101Z" fill="#5F5E5E"/>
<path d="M38.03 27.9699H39.05V28.5699H39.07C39.19 28.3199 39.5 27.8799 40.21 27.8799C40.73 27.8799 41.18 28.1199 41.31 28.6599H41.33C41.46 28.3599 41.86 27.8799 42.56 27.8799C43.2 27.8799 43.74 28.2699 43.74 29.1599V31.8599H42.72V29.6399C42.72 28.8499 42.63 28.7299 42.27 28.7299C41.69 28.7299 41.39 29.5599 41.39 30.1799V31.8699H40.37V29.6499C40.37 28.8599 40.28 28.7399 39.92 28.7399C39.34 28.7399 39.04 29.5699 39.04 30.1899V31.8799H38.02V27.9699H38.03Z" fill="#5F5E5E"/>
<path d="M51.03 27.9699H52.05V28.5099H52.07C52.17 28.2899 52.6 27.8799 53.15 27.8799C54.31 27.8799 54.65 28.8299 54.65 29.9199C54.65 31.0499 54.2 31.9599 53.15 31.9599C52.52 31.9599 52.21 31.5999 52.07 31.3999H52.05V33.6199H51.03V27.9699ZM52.81 31.2399C53.49 31.2399 53.57 30.5499 53.57 29.9099C53.57 29.2999 53.46 28.5799 52.81 28.5799C52.25 28.5799 52.05 29.2999 52.05 29.9099C52.05 30.6299 52.23 31.2399 52.81 31.2399Z" fill="#5F5E5E"/>
<path d="M63.95 31.4096H63.93C63.79 31.6596 63.49 31.9496 62.8 31.9496C62.07 31.9496 61.52 31.5596 61.52 30.9296C61.52 29.6396 63.35 29.6296 63.95 29.6096V29.2296C63.95 28.8496 63.84 28.5196 63.34 28.5196C62.78 28.5196 62.67 28.8596 62.67 29.1196H61.68C61.68 28.3796 62.23 27.8896 63.34 27.8896C64.42 27.8896 64.92 28.3096 64.92 29.0996V31.8696H63.95V31.4096ZM63.04 31.3096C63.7 31.3096 63.95 30.6696 63.95 30.1396C63.29 30.1396 62.5 30.3196 62.5 30.8396C62.5 31.1496 62.69 31.3096 63.04 31.3096Z" fill="#5F5E5E"/>
<path d="M72.22 27.9699H73.23V28.6999H73.25C73.39 28.4099 73.73 27.8799 74.54 27.8799C75.18 27.8799 75.72 28.2699 75.72 29.1599V31.8599H74.7V29.6399C74.7 28.8499 74.61 28.7299 74.25 28.7299C73.56 28.7299 73.22 29.5599 73.22 30.1799V31.8699H72.21V27.9699H72.22Z" fill="#5F5E5E"/>
<path d="M84.01 31.9097L82.4 27.9697H83.46L84.47 30.5897H84.49L85.43 27.9697H86.49L84.32 33.6097H83.38L84.01 31.9097Z" fill="#5F5E5E"/>
<path d="M5.18001 23.8902C5.18001 24.6302 5.27001 25.6802 5.06001 26.5802C5.06001 26.5802 4.92001 27.5102 3.78001 27.4602C2.64001 27.4002 2.14001 27.5502 2.14001 27.5502C1.68001 27.6402 1.45001 27.9802 1.45001 28.7302V31.2102C1.45001 31.9502 1.90001 32.3202 2.59001 32.3902C2.59001 32.3902 5.91001 32.4402 7.36001 31.9902C8.38001 31.6802 9.21001 31.3102 9.81001 30.7402C10.41 30.1702 10.84 29.4502 11.09 28.6102C11.34 27.7602 11.39 26.9202 11.39 26.9202C11.43 26.1802 11.47 24.9602 11.47 24.2202V12.0102C11.47 11.2702 10.97 10.6602 10.22 10.6602H6.42001C5.68001 10.6602 5.17001 11.2702 5.17001 12.0102V23.8902H5.18001Z" fill="#F49600"/>
<path d="M24.11 6.05031C24.8 5.52031 25.77 5.26031 27 5.26031C27.55 5.26031 28.07 5.30031 28.55 5.37031C29.03 5.45031 29.45 5.59031 29.82 5.81031C30.18 6.03031 30.5 6.28031 30.73 6.68031C31.08 7.28031 30.91 8.31031 31.2 8.53031C31.43 8.70031 31.91 8.70031 32.66 8.70031H35.67C36.41 8.70031 37.32 8.75031 37.32 8.08031C37.32 7.77031 37.34 5.56031 36.36 4.22031C35.75 3.38031 34.95 2.73031 33.99 2.26031C33.02 1.79031 31.95 1.47031 30.78 1.31031C29.61 1.15031 28.45 1.07031 27.31 1.07031C26.05 1.07031 24.8 1.20031 23.55 1.44031C22.3 1.69031 21.18 2.11031 20.18 2.69031C19.18 3.28031 18.36 4.05031 17.72 5.02031C17.07 5.99031 16.85 7.33031 16.85 7.33031C16.72 8.06031 17.23 8.66031 17.98 8.66031H21.54C22.28 8.66031 23.02 8.14031 23.22 7.33031C23.21 7.33031 23.43 6.56031 24.11 6.05031Z" fill="#5F5E5E"/>
<path d="M5.17999 7.34008C5.17999 8.08008 5.78999 8.69008 6.52999 8.69008H10.09C10.83 8.69008 11.44 8.08008 11.44 7.34008V2.68008C11.44 1.94008 10.83 1.33008 10.09 1.33008H6.52999C5.78999 1.33008 5.17999 1.94008 5.17999 2.68008V7.34008Z" fill="#5F5E5E"/>
<path d="M37.33 20.7404C37.31 19.9904 37.29 18.7804 37.29 18.0304V12.0004C37.29 11.2604 36.96 10.6504 35.94 10.6504H29.73C27.89 10.6504 24.63 11.0804 23.58 11.2704C22.65 11.4404 21.71 11.6504 20.79 11.9004C19.87 12.1504 19.04 12.5204 18.33 13.0304C17.61 13.5304 17.02 14.2004 16.57 15.0404C16.12 15.8804 15.89 16.9404 15.89 18.2404C15.89 19.4204 16.09 20.4304 16.48 21.2804C16.87 22.1304 17.43 22.8404 18.13 23.4004C18.83 23.9604 19.66 24.3704 20.59 24.6404C21.53 24.9004 22.54 25.0404 23.63 25.0404C25.04 25.0404 26.42 24.8304 27.77 24.4204C29.12 24.0104 30.23 23.1104 30.23 23.1104C30.81 22.6504 31.32 22.6004 31.37 23.0104C31.37 23.0104 31.37 23.0104 31.44 23.3704C31.51 23.7304 31.51 23.7604 31.51 23.7604C31.64 24.3904 32.33 24.4704 33.08 24.4704L36.73 24.4604C37.45 24.4604 37.71 24.0404 37.58 23.2904C37.58 23.2904 37.58 23.2904 37.46 22.3504C37.35 21.4004 37.33 20.7404 37.33 20.7404ZM31.02 14.4904C31.02 15.1304 31 16.0304 30.98 16.4804C30.98 16.4804 30.98 16.4804 30.91 17.0704C30.84 17.6604 30.64 18.2404 30.32 18.8104C30 19.3804 29.5 19.8704 28.83 20.2904C28.16 20.7004 27.2 20.9104 25.97 20.9104C25.47 20.9104 24.99 20.8604 24.52 20.7804C24.05 20.6904 23.64 20.5404 23.29 20.3204C22.94 20.1004 22.66 19.8004 22.46 19.4204C22.26 19.0404 22.15 18.5704 22.15 18.0104C22.15 17.4204 22.25 16.9404 22.46 16.5604C22.66 16.1804 22.94 15.8604 23.27 15.6104C23.61 15.3604 24 15.1604 24.46 15.0204C24.91 14.8704 25.37 14.7504 25.84 14.6704C26.34 14.5804 26.83 14.5104 27.33 14.4504C27.83 14.3904 28.3 14.3204 28.76 14.2304C29.21 14.1404 29.64 14.0304 30.03 13.9004C30.42 13.7704 30.42 13.7704 30.42 13.7704C30.75 13.5104 31.02 13.8504 31.02 14.4904Z" fill="#F49600"/>
<path d="M73 6.05031C73.69 5.52031 74.66 5.26031 75.89 5.26031C76.44 5.26031 76.96 5.30031 77.44 5.37031C77.92 5.45031 78.34 5.59031 78.71 5.81031C79.07 6.03031 79.38 6.28031 79.61 6.68031C79.96 7.28031 79.79 8.31031 80.08 8.53031C80.31 8.70031 80.79 8.70031 81.54 8.70031H84.55C85.29 8.70031 86.2 8.75031 86.2 8.08031C86.2 7.77031 86.22 5.56031 85.25 4.22031C84.64 3.38031 83.84 2.73031 82.87 2.26031C81.9 1.79031 80.83 1.47031 79.66 1.31031C78.49 1.15031 77.33 1.07031 76.19 1.07031C74.93 1.07031 73.67 1.20031 72.43 1.44031C71.18 1.69031 70.06 2.11031 69.07 2.69031C68.07 3.28031 67.25 4.05031 66.61 5.02031C65.96 5.99031 65.74 7.33031 65.74 7.33031C65.62 8.06031 66.12 8.66031 66.87 8.66031H70.43C71.17 8.66031 71.91 8.14031 72.11 7.33031C72.1 7.33031 72.33 6.56031 73 6.05031Z" fill="#5F5E5E"/>
<path d="M54.41 6.05031C53.72 5.52031 52.75 5.26031 51.52 5.26031C50.97 5.26031 50.45 5.30031 49.97 5.37031C49.49 5.45031 49.06 5.59031 48.7 5.81031C48.34 6.03031 48.03 6.28031 47.79 6.68031C47.44 7.28031 47.61 8.31031 47.32 8.53031C47.08 8.70031 46.61 8.70031 45.86 8.70031H42.85C42.11 8.70031 41.2 8.75031 41.2 8.08031C41.2 7.77031 41.18 5.56031 42.15 4.22031C42.76 3.38031 43.56 2.73031 44.53 2.26031C45.5 1.79031 46.57 1.47031 47.74 1.31031C48.91 1.15031 50.07 1.07031 51.21 1.07031C52.47 1.07031 53.73 1.20031 54.97 1.44031C56.22 1.69031 57.34 2.11031 58.33 2.69031C59.33 3.28031 60.15 4.05031 60.8 5.02031C61.44 5.99031 61.67 7.33031 61.67 7.33031C61.8 8.06031 61.29 8.66031 60.54 8.66031H56.98C56.24 8.66031 55.5 8.14031 55.3 7.33031C55.3 7.33031 55.08 6.56031 54.41 6.05031Z" fill="#5F5E5E"/>
<path d="M86.22 20.7404C86.2 19.9904 86.18 18.7804 86.18 18.0304V12.0004C86.18 11.2604 85.85 10.6504 84.83 10.6504H78.62C76.78 10.6504 73.52 11.0804 72.47 11.2704C71.54 11.4404 70.6 11.6504 69.68 11.9004C68.76 12.1504 67.93 12.5204 67.22 13.0304C66.5 13.5304 65.91 14.2004 65.46 15.0404C65 15.8804 64.78 16.9404 64.78 18.2404C64.78 19.4204 64.98 20.4304 65.37 21.2804C65.77 22.1304 66.31 22.8404 67.02 23.4004C67.72 23.9604 68.55 24.3704 69.48 24.6404C70.42 24.9004 71.43 25.0404 72.52 25.0404C73.93 25.0404 75.31 24.8304 76.66 24.4204C78.01 24.0104 79.12 23.1104 79.12 23.1104C79.7 22.6504 80.21 22.6004 80.25 23.0104C80.25 23.0104 80.25 23.0104 80.32 23.3704C80.39 23.7304 80.39 23.7604 80.39 23.7604C80.52 24.3904 81.21 24.4704 81.96 24.4704L85.61 24.4604C86.33 24.4604 86.59 24.0404 86.46 23.2904C86.46 23.2904 86.46 23.2904 86.34 22.3504C86.24 21.4004 86.22 20.7404 86.22 20.7404ZM79.91 14.4904C79.91 15.1304 79.89 16.0304 79.87 16.4804C79.87 16.4804 79.87 16.4804 79.8 17.0704C79.73 17.6604 79.53 18.2404 79.21 18.8104C78.89 19.3804 78.39 19.8704 77.72 20.2904C77.05 20.7004 76.09 20.9104 74.87 20.9104C74.37 20.9104 73.89 20.8604 73.42 20.7804C72.95 20.6904 72.54 20.5404 72.19 20.3204C71.84 20.1004 71.56 19.8004 71.36 19.4204C71.16 19.0404 71.05 18.5704 71.05 18.0104C71.05 17.4204 71.15 16.9404 71.36 16.5604C71.57 16.1804 71.83 15.8604 72.17 15.6104C72.51 15.3604 72.9 15.1604 73.36 15.0204C73.81 14.8704 74.28 14.7504 74.74 14.6704C75.24 14.5804 75.73 14.5104 76.23 14.4504C76.73 14.3904 77.2 14.3204 77.66 14.2304C78.11 14.1404 78.54 14.0304 78.93 13.9004C79.33 13.7704 79.33 13.7704 79.33 13.7704C79.64 13.5104 79.91 13.8504 79.91 14.4904Z" fill="#F49600"/>
<path d="M59.85 12.6603C59.18 12.1803 58.41 11.7803 57.54 11.4903C56.68 11.2003 55.79 10.9503 54.88 10.7403C54.75 10.7103 54.75 10.7103 54.75 10.7103C54.61 10.6803 53.89 10.6503 53.14 10.6503H43.37C42.37 10.6503 41.94 10.6103 42.23 11.0703C42.66 11.7503 43.11 12.1603 43.78 12.6203C44.46 13.0803 45.23 13.4403 46.1 13.7203C46.97 14.0003 47.86 14.2403 48.77 14.4503C51 14.9203 52.75 15.3903 54 15.8603C55.25 16.3303 55.88 17.0403 55.88 17.9803C55.88 18.5403 55.75 19.0003 55.48 19.3703C55.21 19.7403 54.88 20.0303 54.48 20.2503C54.08 20.4703 53.64 20.6303 53.15 20.7403C52.66 20.8403 52.2 20.8903 51.76 20.8903C51.14 20.8903 50.59 20.8203 50.01 20.6703C49.45 20.5303 48.94 20.3103 48.5 20.0003C48.06 19.6903 47.64 19.3003 47.36 18.8203C47.08 18.3403 47.09 18.3403 47.09 18.3403C46.74 17.6003 46.41 17.0903 45.41 17.0903H42.36C41.61 17.0903 41.09 17.6903 41.2 18.4303C41.2 18.4303 41.41 19.8803 42.04 20.8803C42.67 21.8903 43.48 22.7003 44.46 23.3103C45.44 23.9303 46.56 24.3603 47.83 24.6303C49.09 24.8903 50.38 25.0203 51.7 25.0203C52.99 25.0203 54.26 24.8903 55.51 24.6403C56.76 24.3903 57.86 23.9503 58.83 23.3403C59.8 22.7203 60.58 21.9103 61.18 20.8903C61.78 19.8703 62.08 18.6203 62.08 17.1203C62.08 16.0603 61.87 15.1703 61.47 14.4503C61.06 13.7503 60.52 13.1403 59.85 12.6603Z" fill="#F49600"/>
</svg>
