<svg width="25" height="24" viewBox="0 0 25 24" fill="none" xmlns="http://www.w3.org/2000/svg">
<path fill-rule="evenodd" clip-rule="evenodd" d="M11.4039 2C16.3745 2 20.4039 6.02944 20.4039 11C20.4039 13.1248 19.6676 15.0776 18.4362 16.6172L22.111 20.2929C22.5016 20.6834 22.5016 21.3166 22.111 21.7071C21.7506 22.0676 21.1833 22.0953 20.791 21.7903L20.6968 21.7071L17.0211 18.0323C15.4815 19.2637 13.5287 20 11.4039 20C6.43337 20 2.40393 15.9706 2.40393 11C2.40393 6.02944 6.43337 2 11.4039 2ZM11.4039 4C7.53794 4 4.40393 7.13401 4.40393 11C4.40393 14.866 7.53794 18 11.4039 18C15.2699 18 18.4039 14.866 18.4039 11C18.4039 7.13401 15.2699 4 11.4039 4Z" fill="#888888"/>
</svg>
