<svg width="25" height="24" viewBox="0 0 25 24" fill="none" xmlns="http://www.w3.org/2000/svg">
<path fill-rule="evenodd" clip-rule="evenodd" d="M7.5 16H17.5C20.2614 16 22.5 18.2386 22.5 21C22.5 21.5523 22.0523 22 21.5 22C20.9872 22 20.5645 21.614 20.5067 21.1166L20.4949 20.8237C20.407 19.3072 19.1928 18.093 17.6763 18.0051L17.5 18H7.5C5.84315 18 4.5 19.3431 4.5 21C4.5 21.5523 4.05228 22 3.5 22C2.94772 22 2.5 21.5523 2.5 21C2.5 18.3112 4.62231 16.1182 7.28311 16.0046L7.5 16H17.5H7.5ZM12.5 2C15.8137 2 18.5 4.68629 18.5 8C18.5 11.3137 15.8137 14 12.5 14C9.18629 14 6.5 11.3137 6.5 8C6.5 4.68629 9.18629 2 12.5 2ZM12.5 4C10.2909 4 8.5 5.79086 8.5 8C8.5 10.2091 10.2909 12 12.5 12C14.7091 12 16.5 10.2091 16.5 8C16.5 5.79086 14.7091 4 12.5 4Z" fill="black"/>
</svg>
